<svg id="Layer_1" data-name="Layer 1" xmlns="http://www.w3.org/2000/svg" viewBox="0 0 100 100"><defs><style>.cls-1{fill:#da1c5c;}.cls-2{font-size:60px;font-family:RocketChicken-Regular, Rocket Chicken;letter-spacing:0.05em;}.cls-2,.cls-3,.cls-4{fill:#fff;}.cls-3{font-size:12px;font-family:ArchitectsDaughter-Regular, Architects Daughter;letter-spacing:0.05em;}</style></defs><rect class="cls-1" width="100" height="100" rx="4.23"/><text class="cls-2" transform="translate(13.52 58.94)">RB</text><text class="cls-3" transform="translate(15.74 83.19)">Raghu Bhat</text><ellipse class="cls-4" cx="83.97" cy="59.6" rx="2.65" ry="1.52" transform="translate(-16.71 38.01) rotate(-23.26)"/><path class="cls-4" d="M16.77,67.43c-.25,0,.13.06-.16,0A.16.16,0,0,1,16.77,67.43Z"/><path class="cls-4" d="M82.58,67.47c-.79.19-1.83,0-2.7.12-.1,0,0-.1-.2-.08a13.14,13.14,0,0,1-3.18-.05l.07,0c-.2,0-.44.07-.64.06,0,0,.06,0,0,0s-.38,0-.46.07-.08-.07-.18-.1l-.12.07c-.33.16-.8,0-1.24.07,0,0,.06,0,0,0-.72.09-1.62.08-2.42.11,0,0,.06-.07,0-.09s-.29.09-.5.1-.37.07-.62,0l0,0c-.19.08-.28,0-.43,0l-.12-.06c-.08.1-.27,0-.42,0v0c-.14,0-.22,0-.35,0h0c-.32,0-.5,0-.5.05s.31,0,.14-.12c-1,.08-2.11.06-3.16.07a.79.79,0,0,1-.22-.08,4.1,4.1,0,0,0-.49.06s-.06,0-.12,0-.21.09-.42.06c.09,0,.11-.05.09-.08a3.12,3.12,0,0,1-.63.07s.08,0,.08,0c-.23.07-.42,0-.63,0l.08,0c-.33-.06-.1.1-.38.06.07,0,.05,0,.06,0a6.11,6.11,0,0,1-.95.09s0,0,0,0c-.28,0-.58,0-.89,0-.12,0,0-.12-.27-.1,0,.09-.51,0-.33.14a4.79,4.79,0,0,0-.84,0c.12,0-.12-.12.09-.13l-.16,0s.17,0,.11,0a4.49,4.49,0,0,1-.51,0,2.24,2.24,0,0,1-.71.17c.16,0-.08-.1,0-.11l-.45.17c-.1,0,0-.07-.18,0,0,0,0,0-.1.06s-.45,0-.49-.06.17,0,0-.06-.2,0-.4,0h0c-.13,0-.38,0-.24.09s0-.06.1,0a1.66,1.66,0,0,1-.52.07c.07,0,.06,0,.09-.07a5.6,5.6,0,0,1-.85.13s.12-.08.16-.06c-.38-.06-.79.08-1.1,0,0,0,0,.06,0,0-.18,0-.17-.07-.29,0s-.15,0-.28,0,0,0,.08,0a5.91,5.91,0,0,1-1.25,0,.8.8,0,0,1-.34.08l0,0c-.08,0-.31,0-.32,0-.2.07.75-.06.48,0-.06-.05-.36.09-.31,0a1.58,1.58,0,0,1-.53,0c.05,0,.15-.08,0-.07s-.07,0-.28,0l-.14,0s-.23,0-.13,0-.38,0-.35-.06l0-.07c-.11,0-.18.07-.27.1s0,0,0,0-.26,0-.4.08a3.88,3.88,0,0,1-.71-.08,1.42,1.42,0,0,1-.55,0s.1,0,.11,0a.44.44,0,0,0-.28,0s-.26-.06-.4-.1-.12.09-.14.13c-.17-.11-.51.07-.71,0,.06,0,.26-.06.11-.08s-.33.08-.6,0l.07.1c-.12-.06-.39,0-.37,0s-.31,0-.28,0c-.44-.07-1.06.05-1.33-.11-.06,0-.21,0-.18,0s.14,0,.18,0-.07,0-.07,0-.25,0-.12-.1c-.3,0-.31.15-.69.12,0,0,0-.05-.13-.05l-.21.07c-.25,0-.14-.09-.15-.15a.82.82,0,0,0-.35.06l-.16-.08c.12,0-.11,0-.17,0h.06s-.18,0-.25,0,.17.06.26.07c-.07,0-.18,0-.27.05s-.21,0-.32-.05-.13.06-.17.05-.2,0-.1-.05.09,0,.16,0c-.08,0-.07-.08-.24,0s0,.12-.2.08c.06,0,.07,0,.12-.06l-.22,0v0s0,0,0,0-.34,0-.39.08-.24,0-.34,0h0a.8.8,0,0,0-.41,0h0a1,1,0,0,0-.33,0c-.18,0-.06-.21-.26-.14s-.28.1-.21.14a8.16,8.16,0,0,1-1,0s0,0-.12,0a7.71,7.71,0,0,1-1.39,0c.14,0,0,0,0-.08s-.14-.06-.18,0,0,.07.14.09a3.09,3.09,0,0,1-.88,0c.08,0,0,0-.05.06s-.19-.09-.35-.07l0,0-.11,0c-.06,0-.06.11-.22.06a.08.08,0,0,0-.05-.05,1.42,1.42,0,0,1-.58.06l-.15-.07c-.07,0-.2,0-.07.07a2.11,2.11,0,0,1-.6-.11A7.37,7.37,0,0,1,32.6,68l0,0c-.16,0-.09.07-.2,0,0,0-.13-.08,0-.12-.23,0-.3.07-.45.08s.12,0,.09,0-.33,0-.36,0,0-.08,0-.11l-.14,0c-.18-.08.4-.15.22-.26l-.14,0c-.12-.08.36-.09,0-.12-.14,0-.27.15-.14.18-.3,0-.14.17-.46.16-.09,0,.26,0,.2-.07s-.31,0-.45,0c.15,0,0,.1-.07.11s.11-.07-.13-.08c0,0-.25.08-.06.11-.09.09-.25,0-.37,0s.24-.15,0-.18c0,.06-.32.08-.18.18-.1,0-.11-.07,0-.11-.14,0-.35.12-.39,0l0,.07-.19-.08c-.12,0-.4.09-.39,0s-.33,0-.22.08.21,0,.31,0c-.13-.08-.26,0-.37,0v0c-.07,0-.21,0-.25,0s0,0,0-.06l-.07.06c-.25,0-.06-.11-.3-.09l.18,0s-.12,0-.24,0-.13.12-.17.16-.06-.06-.19,0l.17-.06s-.12-.09-.3-.09-.3.1-.12.13c-.09,0-.22,0-.14-.07-.21,0,0,0-.16.09s-.3-.09-.44-.14l.19-.09h-.13c.17-.07-.08-.06,0-.13a.83.83,0,0,0-.27,0c.25.12-.28.17-.21.28-.34,0-.21-.27-.57-.1.06,0-.11.11.11.08-.22,0-.15.11-.4.07.19,0-.2-.11.07-.18,0,0,.15,0,.19,0s0-.11-.2-.11-.31,0-.29.07.21,0,.12,0c-.26,0-.31-.07-.42,0,.17,0,.21.06.21.1l-.2,0,0,0c-.31,0-.09.07-.39.06L24.3,68c.08-.07.44,0,.39-.09a2.32,2.32,0,0,1-.45,0l.14,0c-.07,0-.14-.15-.42-.06s0,0,0,.08c-.32,0-.41.06-.62.07.05-.09-.35,0-.13-.1a1.19,1.19,0,0,0,.67,0c-.11-.1.25,0,.32-.08-.26,0-.24-.11-.28-.17a.45.45,0,0,0-.18,0c0,.06.06.06.06.13a1.85,1.85,0,0,0-.71.07c-.09,0-.06-.09.05-.09-.34,0-.7,0-1,0,.21.1-.35,0-.21.1s.32.1.22.14,0,0,0-.06-.21-.09-.34,0c.3,0,.06-.13.11-.2-.22,0,0-.06-.21-.06a5.6,5.6,0,0,1-.73.09,4.67,4.67,0,0,0-1.06,0c-.14,0-.05-.13-.2-.15s.13.1-.14.06l0,0c-.09,0-.5-.06-.58.07l.08-.1a.32.32,0,0,0-.14,0s-.06-.06,0-.08c-.16-.06-.35,0-.53,0l.12.05a7.51,7.51,0,0,1-.82,0v0l-.18,0c.05,0-.12-.09-.21,0l.47-.14c.13,0-.15.07-.06.12a.48.48,0,0,0,.39,0,.6.6,0,0,0-.2,0c0-.08.13-.08.21-.13s-.13,0-.15,0a1.14,1.14,0,0,1,.41,0c-.13,0,.07,0,0,.07s.19-.09.41-.07.43,0,.69,0a.9.9,0,0,1-.4.15c.16,0,.18,0,.35,0a.63.63,0,0,1,.35-.16v0c.2,0,.2-.1.44-.09l1.19,0v0c.18-.11.6,0,.85-.09a8.4,8.4,0,0,1,1.1,0c.73,0,1.37-.08,2.13-.06l-.13.08c.13-.06.09,0,.22,0-.15-.06.18-.08.28-.12a3.72,3.72,0,0,0,1.06-.06v0a3.61,3.61,0,0,1,1,0,.35.35,0,0,0,.22.07,2.68,2.68,0,0,1,.61-.13,7,7,0,0,1,.79,0c.83-.11,1.66,0,2.52-.11l.06.06c.82-.13,1.84,0,2.55-.08l-.07.11c.22,0,.5,0,.45-.1.22,0,.55,0,.69,0s.28,0,.47-.06a6.16,6.16,0,0,0,1.05,0H37.2c-.05,0-.05.06,0,.07s.59,0,.43-.1c.46.07,1.07-.05,1.51,0,0,0,.08,0,.12-.06a7.43,7.43,0,0,0,1.15,0c.06,0-.11.06.06.06s0,0,.12-.06c.65-.07,1.31.06,1.9,0,1.05-.06,2.15,0,3.15,0v0c.34-.1.79.09,1.06,0,.08,0,.31,0,.25.06.26-.07.75.06,1.14,0H48c.39.06.73,0,1.15,0,0,0-.12,0-.13,0,.16.05.38-.1.46,0s.07-.06,0-.06c.91,0,1.87,0,2.81,0,.68.07.05.19.58.11,0,0,0-.05,0,0,.2,0,.32.13.46.06-.06-.07.1,0,.1-.08a2.42,2.42,0,0,0,.82.06l0,0c.38-.11.82,0,1.14-.18,2.11,0,4.13-.09,6.18-.1s4,0,6.07,0a2.62,2.62,0,0,0,1,.06s0,0,0,0,.38,0,.43-.08c.76,0,1.46,0,2.24,0-.12,0-.18.07,0,.07l.16,0,0,0c.1,0,.21,0,.11-.08,2-.07,3.9.09,5.83.07a14.47,14.47,0,0,0,1.61,0,32.37,32.37,0,0,0,4.3.12A1.26,1.26,0,0,1,82.58,67.47Z"/><path class="cls-4" d="M17.06,67.42c.06,0,.23.07.09.12S17.05,67.46,17.06,67.42Z"/><path class="cls-4" d="M21.64,67.84s.07,0,.08,0-.11,0-.15,0S21.62,67.86,21.64,67.84Z"/><path class="cls-4" d="M22.81,67.87a1.32,1.32,0,0,1-.41.07Z"/><path class="cls-4" d="M23.9,68c.1,0,.07,0-.06,0S23.88,68,23.9,68Z"/><path class="cls-4" d="M24,67.94a.28.28,0,0,1,.18,0S24,68,24,67.94Z"/><path class="cls-4" d="M26.35,68c.06,0,.18,0,.23,0S26.3,68.1,26.35,68Z"/><path class="cls-4" d="M27.45,68a.27.27,0,0,0,.09,0c.07,0,0,0-.06,0Z"/><polygon class="cls-4" points="47.48 67.84 47.36 67.86 47.38 67.82 47.48 67.84"/><path class="cls-4" d="M56.26,67.84c.12,0,.08,0,.1,0S56.4,67.83,56.26,67.84Z"/><polygon class="cls-4" points="60.99 67.66 60.96 67.66 60.97 67.58 60.99 67.66"/></svg>